# xmcd
#
# Track frame offsets: 
#        150
#        15914
#        34656
#        55052
#        73503
#        89551
#        108326
#        127851
#        140155
#        157938
#        177691
#
# Disc length: 2577 seconds
#
# Revision: 3
# Processed by: cddbd v1.5.2PL0 Copyright (c) Steve Scherf et al.
# Submitted via: ExactAudioCopyFreeDBPlugin 1.0
#
DISCID=8d0a0f0b
DTITLE=謝安琪 - Kontinue
DYEAR=2014
DGENRE=Pop
TTITLE0=C餐
TTITLE1=雞蛋與羔羊
TTITLE2=家明
TTITLE3=勢不兩立
TTITLE4=篋神
TTITLE5=頭盔
TTITLE6=獨家村
TTITLE7=我可以被這個世界淘汰，但不可以被世界擊敗
TTITLE8=十倍奉還
TTITLE9=最好的時刻
TTITLE10=正視 愛 (bonus track)
EXTD=
EXTT0=
EXTT1=
EXTT2=
EXTT3=
EXTT4=
EXTT5=
EXTT6=
EXTT7=
EXTT8=
EXTT9=
EXTT10=
PLAYORDER=
